<svg width="478" height="478" viewBox="0 0 478 478" fill="none" xmlns="http://www.w3.org/2000/svg">
<path fill-rule="evenodd" clip-rule="evenodd" d="M478 239C478 370.996 370.996 478 239 478C107.004 478 0 370.996 0 239C0 107.004 107.004 0 239 0C370.996 0 478 107.004 478 239ZM83.3743 171.698V306.251H121.184V258.44H180.066V227.06H121.184V203.079H180.27V171.698H121.184H113.938H83.3743ZM194.506 171.698L236.857 306.251H268.135L289.514 231.312L310.894 306.251H342.274L384.625 171.698H347.377L326.176 245.228L305.23 171.698H274.054L253.209 244.872L232.112 171.698H194.506ZM384.676 311.608C378.859 311.608 374.011 309.618 370.133 305.638C366.307 301.658 364.368 296.811 364.368 291.096C364.368 285.382 366.307 280.381 370.133 276.401C373.96 272.421 378.808 270.431 384.676 270.431C390.543 270.431 395.34 272.421 399.116 276.401C402.891 280.381 404.779 285.279 404.779 291.096C404.779 296.913 402.891 301.658 399.116 305.638C395.34 309.618 390.492 311.608 384.676 311.608Z" fill="#004751"/>
</svg>
